#define close_pressed_width 14
#define close_pressed_height 14
static unsigned char close_pressed_bits[] = {
   0x00, 0x00, 0x00, 0x00, 0x00, 0x00, 0x08, 0x04, 0x10, 0x02, 0x20, 0x01,
   0xc0, 0x00, 0xc0, 0x00, 0x20, 0x01, 0x10, 0x02, 0x08, 0x04, 0x00, 0x00,
   0x00, 0x00, 0x00, 0x00 };
